# File created by Blade
# Date/Time:  Mon Sep 22 15:39:46 2014
# Frame Rate: 120.000 fps
#------------------------------------------------------
:FULLY-SPECIFIED
:DEGREES
976
root 1.933348 37.004155 2.427556 -1.570381 -2.346158 1.508981
RightUpLeg 10.006941 -6.941282 -3.169147
RightLeg -5.739215 -0.000000 0.000000
RightFoot -12.440851 -14.291607 15.671310
RightToeBase 15.728176 -0.000000 -0.000000
LeftUpLeg 8.013474 1.299161 2.267098
LeftLeg -2.587391 -0.000000 0.000000
LeftFoot -9.978439 13.585933 -17.526587
LeftToeBase 9.733186 -0.000000 -0.000000
Spine -0.160986 11.610120 -2.824857
RightShoulder 5.708860 -0.450173 -26.562427
RightArm 83.662864 26.982993 103.463377
RightForeArm 84.563014 -0.000000 147.595527
RightHand 16.068989 -0.000000 32.214905
RightHandThumb1 -24.326973 -0.000000 -32.862282
LeftShoulder -5.057204 37.168253 1.582505
LeftArm 47.138927 22.226026 -58.447253
LeftForeArm 24.516396 -0.000000 20.131434
LeftHand -13.610930 -0.000000 -8.655634
LeftHandThumb1 -26.253704 0.000000 33.147579
Head -3.702900 -2.654984 -3.822302
977
root 1.933312 37.004405 2.431999 -1.540881 -2.381601 1.504845
RightUpLeg 9.992899 -6.942182 -3.163879
RightLeg -5.766243 -0.000000 0.000000
RightFoot -12.433575 -14.253027 15.703431
RightToeBase 15.929558 -0.000000 -0.000000
LeftUpLeg 8.023391 1.372178 2.277918
LeftLeg -2.642538 -0.000000 0.000000
LeftFoot -9.936636 13.549608 -17.513375
LeftToeBase 9.715578 -0.000000 -0.000000
Spine -0.255168 11.693550 -2.864238
RightShoulder 5.860419 -0.268615 -26.668427
RightArm 83.285786 27.376624 103.842785
RightForeArm 85.023834 -0.000000 146.802172
RightHand 15.961498 -0.000000 32.126529
RightHandThumb1 -24.326973 -0.000000 -32.862282
LeftShoulder -5.151064 37.151281 1.483307
LeftArm 47.124627 22.136234 -58.442169
LeftForeArm 24.654347 -0.000000 20.147124
LeftHand -13.845074 -0.000000 -8.572973
LeftHandThumb1 -26.253704 0.000000 33.147579
Head -3.605315 -2.873190 -3.795167
978
root 1.933277 37.005741 2.434595 -1.502817 -2.416602 1.499250
RightUpLeg 9.958226 -6.906240 -3.151776
RightLeg -5.776871 -0.000000 0.000000
RightFoot -12.409359 -14.275655 15.698535
RightToeBase 15.738570 -0.000000 -0.000000
LeftUpLeg 8.016923 1.425684 2.287767
LeftLeg -2.686183 -0.000000 0.000000
LeftFoot -9.913331 13.529665 -17.530296
LeftToeBase 9.728088 -0.000000 -0.000000
Spine -0.350250 11.776724 -2.877831
RightShoulder 5.933238 -0.489326 -26.627263
RightArm 83.405754 27.539900 104.145151
RightForeArm 84.917929 0.000000 145.676334
RightHand 15.928502 -0.000000 31.891523
RightHandThumb1 -24.326973 -0.000000 -32.862282
LeftShoulder -5.277031 37.124062 1.331581
LeftArm 47.135862 22.065331 -58.373609
LeftForeArm 24.553930 -0.000000 20.125508
LeftHand -13.737099 -0.000000 -8.727818
LeftHandThumb1 -26.253704 0.000000 33.147579
Head -3.524273 -3.075851 -3.842475
979
root 1.932883 37.006934 2.438163 -1.472444 -2.456493 1.483550
RightUpLeg 9.923308 -6.872200 -3.131204
RightLeg -5.769607 -0.000000 0.000000
RightFoot -12.402149 -14.274306 15.695142
RightToeBase 15.937729 -0.000000 -0.000000
LeftUpLeg 8.011857 1.490684 2.309703
LeftLeg -2.710055 -0.000000 0.000000
LeftFoot -9.899000 13.487596 -17.545940
LeftToeBase 9.769368 -0.000000 -0.000000
Spine -0.444396 11.857735 -2.898965
RightShoulder 6.069403 -0.486682 -26.634320
RightArm 83.255311 27.861265 104.392736
RightForeArm 84.819331 -0.000000 144.511501
RightHand 15.996113 -0.000000 31.585000
RightHandThumb1 -24.326973 -0.000000 -32.862282
LeftShoulder -5.391807 37.076940 1.218161
LeftArm 47.105337 21.978595 -58.401672
LeftForeArm 24.537562 -0.000000 20.098363
LeftHand -13.876662 0.000000 -8.322264
LeftHandThumb1 -26.253704 0.000000 33.147579
Head -3.447495 -3.275476 -3.841318
980
root 1.933302 37.007902 2.440897 -1.445111 -2.493395 1.476179
RightUpLeg 9.890412 -6.830036 -3.119342
RightLeg -5.763396 -0.000000 0.000000
RightFoot -12.411140 -14.270496 15.751841
RightToeBase 15.959955 -0.000000 -0.000000
LeftUpLeg 8.007205 1.519204 2.315364
LeftLeg -2.736526 -0.000000 0.000000
LeftFoot -9.891134 13.506731 -17.554581
LeftToeBase 9.761809 -0.000000 -0.000000
Spine -0.527287 11.965338 -2.934705
RightShoulder 6.142482 -0.578202 -26.615238
RightArm 83.248039 28.116031 104.729792
RightForeArm 85.181635 -0.000000 143.209759
RightHand 15.611023 -0.000000 31.294580
RightHandThumb1 -24.326973 -0.000000 -32.862282
LeftShoulder -5.476587 37.012989 1.127906
LeftArm 47.091772 21.893901 -58.413283
LeftForeArm 24.410547 -0.000000 20.047020
LeftHand -13.839410 -0.000000 -8.309412
LeftHandThumb1 -26.253704 0.000000 33.147579
Head -3.397928 -3.460649 -3.801693
981
root 1.933687 37.009205 2.442951 -1.426484 -2.523397 1.464196
RightUpLeg 9.867086 -6.756048 -3.100349
RightLeg -5.757977 -0.000000 0.000000
RightFoot -12.397130 -14.314164 15.770229
RightToeBase 15.724712 -0.000000 -0.000000
LeftUpLeg 8.003633 1.512732 2.322276
LeftLeg -2.750981 -0.000000 0.000000
LeftFoot -9.891139 13.545497 -17.549381
LeftToeBase 9.744479 -0.000000 -0.000000
Spine -0.596631 12.069379 -2.964721
RightShoulder 6.199407 -0.616729 -26.579497
RightArm 83.155907 28.366356 104.909898
RightForeArm 85.349255 -0.000000 141.753413
RightHand 15.429644 0.000000 30.991909
RightHandThumb1 -24.326973 -0.000000 -32.862282
LeftShoulder -5.532553 36.929312 1.065836
LeftArm 47.028708 21.787535 -58.500668
LeftForeArm 24.326176 -0.000000 20.017564
LeftHand -13.832623 -0.000000 -8.340596
LeftHandThumb1 -26.253704 0.000000 33.147579
Head -3.372832 -3.680801 -3.787326
982
root 1.934269 37.010158 2.444662 -1.421472 -2.546276 1.453916
RightUpLeg 9.849390 -6.698914 -3.084076
RightLeg -5.732704 -0.000000 0.000000
RightFoot -12.419792 -14.344322 15.785378
RightToeBase 15.922186 -0.000000 -0.000000
LeftUpLeg 8.001692 1.505278 2.329325
LeftLeg -2.740968 -0.000000 0.000000
LeftFoot -9.907921 13.562226 -17.570374
LeftToeBase 9.733584 -0.000000 -0.000000
Spine -0.638446 12.144420 -2.983192
RightShoulder 6.258320 -0.562957 -26.573883
RightArm 82.957098 28.611682 104.990534
RightForeArm 85.393761 -0.000000 140.178586
RightHand 15.289121 -0.000000 30.477975
RightHandThumb1 -24.326973 -0.000000 -32.862282
LeftShoulder -5.607893 36.840727 0.985714
LeftArm 46.961482 21.699630 -58.577220
LeftForeArm 24.389543 -0.000000 19.992674
LeftHand -13.863495 -0.000000 -8.213477
LeftHandThumb1 -26.253704 0.000000 33.147579
Head -3.388357 -3.832837 -3.763914
